<?xml version="1.0" encoding="UTF-8" standalone="no"?><!DOCTYPE svg PUBLIC "-//W3C//DTD SVG 1.1//EN" "http://www.w3.org/Graphics/SVG/1.1/DTD/svg11.dtd"><svg width="100%" height="100%" viewBox="0 0 2000 1000" version="1.1" xmlns="http://www.w3.org/2000/svg" xmlns:xlink="http://www.w3.org/1999/xlink" xml:space="preserve" xmlns:serif="http://www.serif.com/" style="fill-rule:evenodd;clip-rule:evenodd;stroke-linejoin:round;stroke-miterlimit:1.41421;"><rect id="Artboard1" x="0" y="0" width="2000" height="1000" style="fill:none;"/><clipPath id="_clip1"><rect id="Artboard11" serif:id="Artboard1" x="0" y="0" width="2000" height="1000"/></clipPath><g clip-path="url(#_clip1)"><g><path d="M424.672,463.564l-157.277,0c-4.058,0 -7.352,3.294 -7.352,7.352l0,76.895c0,4.058 3.294,7.358 7.352,7.358l61.353,0l0,95.539c0,0 -13.775,4.692 -51.864,4.692c-44.933,0 -107.704,-16.415 -107.704,-154.449c0,-138.06 65.364,-156.227 126.727,-156.227c53.117,0 76.002,9.354 90.562,13.859c4.577,1.398 8.807,-3.154 8.807,-7.213l17.548,-74.296c0,-1.902 -0.644,-4.189 -2.806,-5.742c-5.913,-4.22 -41.991,-24.407 -133.134,-24.407c-104.991,0 -212.695,44.672 -212.695,259.409c0,214.742 123.308,246.741 227.218,246.741c86.036,0 138.227,-36.764 138.227,-36.764c2.151,-1.184 2.385,-4.193 2.385,-5.57l0,-239.825c0,-4.058 -3.289,-7.352 -7.347,-7.352" style="fill:#0e0d0d;fill-rule:nonzero;"/><path d="M1235.21,272.655c0,-4.089 -3.243,-7.394 -7.301,-7.394l-88.555,0c-4.048,0 -7.332,3.305 -7.332,7.394c0,0.021 0.021,171.14 0.021,171.14l-138.035,0l0,-171.14c0,-4.089 -3.258,-7.394 -7.311,-7.394l-88.55,0c-4.027,0 -7.311,3.305 -7.311,7.394l0,463.396c0,4.084 3.284,7.41 7.311,7.41l88.55,0c4.053,0 7.311,-3.326 7.311,-7.41l0,-198.213l138.035,0c0,0 -0.24,198.197 -0.24,198.213c0,4.084 3.279,7.41 7.338,7.41l88.763,0c4.053,0 7.295,-3.326 7.306,-7.41l0,-463.396Z" style="fill:#0e0d0d;fill-rule:nonzero;"/><path d="M591.78,333.463c0,-31.884 -25.565,-57.653 -57.107,-57.653c-31.51,0 -57.092,25.769 -57.092,57.653c0,31.854 25.582,57.695 57.092,57.695c31.542,0 57.107,-25.841 57.107,-57.695" style="fill:#0e0d0d;fill-rule:nonzero;"/><path d="M585.448,638.299l0,-213.906c0,-4.058 -3.274,-7.378 -7.327,-7.378l-88.275,0c-4.053,0 -7.675,4.172 -7.675,8.236l0,306.462c0,9 5.612,11.681 12.877,11.681l79.534,0c8.725,0 10.866,-4.287 10.866,-11.827l0,-93.268Z" style="fill:#0e0d0d;fill-rule:nonzero;"/><path d="M1571.76,417.71l-87.874,0c-4.032,0 -7.311,3.321 -7.311,7.41l0,227.214c0,0 -22.329,16.337 -54.016,16.337c-31.687,0 -40.094,-14.378 -40.094,-45.405l0,-198.146c0,-4.089 -3.274,-7.41 -7.306,-7.41l-89.19,0c-4.022,0 -7.321,3.321 -7.321,7.41l0,213.147c0,92.157 51.36,114.703 122.014,114.703c57.97,0 104.705,-32.024 104.705,-32.024c0,0 2.219,16.877 3.232,18.878c1.003,1.995 3.627,4.011 6.465,4.011l56.738,-0.249c4.022,0 7.322,-3.326 7.322,-7.4l-0.032,-311.066c0,-4.089 -3.284,-7.41 -7.332,-7.41" style="fill:#0e0d0d;fill-rule:nonzero;"/><path d="M1777.28,668.389c-30.481,-0.931 -51.157,-14.758 -51.157,-14.758l0,-146.749c0,0 20.395,-12.502 45.421,-14.736c31.645,-2.832 62.137,6.724 62.137,82.216c0,79.602 -13.76,95.315 -56.401,94.027m34.66,-261.088c-49.911,0 -83.858,22.271 -83.858,22.271l0,-156.918c0,-4.089 -3.274,-7.394 -7.306,-7.394l-88.81,0c-4.038,0 -7.316,3.305 -7.316,7.394l0,463.396c0,4.089 3.278,7.415 7.326,7.415l61.618,0c2.775,0 4.874,-1.434 6.428,-3.939c1.533,-2.489 3.741,-21.362 3.741,-21.362c0,0 36.312,34.41 105.054,34.41c80.709,0 126.992,-40.937 126.992,-183.772c0,-142.836 -73.923,-161.501 -123.869,-161.501" style="fill:#0e0d0d;fill-rule:nonzero;"/><path d="M839.96,416.972l-66.429,0c0,0 -0.099,-87.739 -0.099,-87.76c0,-3.321 -1.709,-4.984 -5.555,-4.984l-90.519,0c-3.518,0 -5.41,1.554 -5.41,4.937l0,90.686c0,0 -45.363,10.948 -48.429,11.837c-3.055,0.883 -5.305,3.7 -5.305,7.062l0,56.987c0,4.095 3.273,7.405 7.321,7.405l46.413,0l0,137.099c0,101.827 71.429,111.83 119.624,111.83c22.028,0 48.373,-7.072 52.722,-8.678c2.629,-0.967 4.162,-3.689 4.162,-6.641l0.073,-62.693c0,-4.09 -3.455,-7.4 -7.342,-7.4c-3.872,0 -13.776,1.575 -23.971,1.575c-32.627,0 -43.685,-15.168 -43.685,-34.805c0,-19.626 -0.005,-130.287 -0.005,-130.287l66.434,0c4.048,0 7.332,-3.31 7.332,-7.405l0,-71.381c0,-4.09 -3.284,-7.384 -7.332,-7.384" style="fill:#0e0d0d;fill-rule:nonzero;"/></g></g></svg>