<svg xmlns="http://www.w3.org/2000/svg" xmlns:xlink="http://www.w3.org/1999/xlink" viewBox="0 0 654.44 157.44"><defs><linearGradient id="linear-gradient" x1="80.98" y1="8.49" x2="37.63" y2="108.99" gradientUnits="userSpaceOnUse"><stop offset="0" stop-color="#29abe2"/><stop offset="0.57" stop-color="#2e3192"/><stop offset="1"/></linearGradient><linearGradient id="linear-gradient-2" x1="60.96" y1="6.21" x2="43.89" y2="58.76" gradientUnits="userSpaceOnUse"><stop offset="0" stop-color="#66aad7"/><stop offset="0.57" stop-color="#338dc9"/><stop offset="1" stop-color="#0071bc"/></linearGradient><linearGradient id="linear-gradient-3" x1="0" y1="106.49" x2="90.57" y2="106.49" xlink:href="#linear-gradient"/><linearGradient id="linear-gradient-4" x1="-6.51" y1="79.59" x2="47.68" y2="226.38" xlink:href="#linear-gradient"/><linearGradient id="linear-gradient-5" x1="69.04" y1="175.34" x2="72.53" y2="28.69" gradientUnits="userSpaceOnUse"><stop offset="0.18" stop-color="#fff"/><stop offset="1"/></linearGradient><linearGradient id="linear-gradient-6" x1="441.58" y1="124.49" x2="653.6" y2="124.49" gradientUnits="userSpaceOnUse"><stop offset="0.04" stop-color="#2e3192"/><stop offset="1" stop-color="#29abe2"/></linearGradient></defs><title>Asset 2</title><g style="isolation:isolate"><g id="Layer_2" data-name="Layer 2"><g id="Layer_1-2" data-name="Layer 1"><path d="M62.62,64.31h42.44A26.22,26.22,0,0,0,124.73,56,26.22,26.22,0,0,0,133,36.36V19.8H28A26.24,26.24,0,0,0,8.28,28.08,26.24,26.24,0,0,0,0,47.75V64.31H62.62Z" transform="translate(0 -19.7)" style="fill-rule:evenodd;fill:url(#linear-gradient)"/><polygon points="43.48 64.28 83.84 64.28 90.57 64.28 62.62 44.61 36.23 44.61 0 44.61 27.95 64.28 27.95 64.28 43.48 64.28" style="fill-rule:evenodd;fill:url(#linear-gradient-2)"/><path d="M62.62,129a28.29,28.29,0,0,0,19.67-8.28,27.37,27.37,0,0,0,8.28-20.19V84H28A27.35,27.35,0,0,0,8.28,92.26C2.59,97.44,0,104.68,0,112.45V129H62.62Z" transform="translate(0 -19.7)" style="fill-rule:evenodd;fill:url(#linear-gradient-3)"/><path d="M44.51,176.11v-9.84c0-7.76-2.59-15-8.28-20.18a28.27,28.27,0,0,0-19.67-8.28H0v11.38a26.22,26.22,0,0,0,8.28,19.67A28.27,28.27,0,0,0,28,177.14H44.51Z" transform="translate(0 -19.7)" style="fill-rule:evenodd;fill:url(#linear-gradient-4)"/><g style="mix-blend-mode:screen"><path d="M109.92,61.11A47.73,47.73,0,0,1,79,49.36C56.29,30,34.6,25.87,20.38,25.87c-2.16,0-4.15.1-5.95.25A24.64,24.64,0,0,1,28,22.3H130.51V36.36a23.64,23.64,0,0,1-7.46,17.82l-.09.08-.08.09a22.64,22.64,0,0,1-11.63,6.74l-1.32,0Z" transform="translate(0 -19.7)" style="fill:url(#linear-gradient-5)"/><path d="M128,24.8V36.36a21.19,21.19,0,0,1-6.64,16l-.18.16-.16.18a20.17,20.17,0,0,1-10.11,5.93h-1A45.34,45.34,0,0,1,80.57,47.47c-16.29-14-32.14-20.2-45.2-22.67H128m5-5H28A26.24,26.24,0,0,0,8.28,28.08a22.06,22.06,0,0,0-1.73,1.76,62,62,0,0,1,13.83-1.47c13.76,0,34.85,4,56.94,22.89a50,50,0,0,0,32.6,12.35c.56,0,1.11,0,1.66,0A25.12,25.12,0,0,0,124.73,56,26.22,26.22,0,0,0,133,36.36V19.8Z" transform="translate(0 -19.7)"/></g><path d="M441.58,134.58l2.8-3.3a10.65,10.65,0,0,0,7.07,3.09c3.06,0,4.74-1.38,4.74-3.5s-1.76-2.94-4.22-4l-3.71-1.61c-2.68-1.11-5.49-3.23-5.49-7.2,0-4.32,3.82-7.65,9.12-7.65a11.87,11.87,0,0,1,8.36,3.46l-2.47,3.06a8.75,8.75,0,0,0-5.89-2.34c-2.58,0-4.25,1.21-4.25,3.19s2.06,2.92,4.31,3.84l3.66,1.54c3.23,1.34,5.49,3.39,5.49,7.32,0,4.4-3.65,8.07-9.75,8.07A14,14,0,0,1,441.58,134.58Z" transform="translate(0 -19.7)" style="fill:url(#linear-gradient-6)"/><path d="M465.32,124.38c0-8.78,4.9-14,12-14s12,5.2,12,14-4.9,14.18-12,14.18S465.32,133.16,465.32,124.38Zm19,0c0-6.09-2.75-9.78-7-9.78s-7,3.69-7,9.78,2.76,10,7,10S484.31,130.47,484.31,124.38Z" transform="translate(0 -19.7)" style="fill:url(#linear-gradient-6)"/><path d="M495.44,110.92h4.82V134h11.27v4.05H495.44Z" transform="translate(0 -19.7)" style="fill:url(#linear-gradient-6)"/><path d="M515.48,126.16V110.92h4.81v15.6c0,5.91,2.21,7.85,5.5,7.85s5.61-1.94,5.61-7.85v-15.6H536v15.24c0,8.91-3.95,12.4-10.24,12.4S515.48,135.07,515.48,126.16Z" transform="translate(0 -19.7)" style="fill:url(#linear-gradient-6)"/><path d="M549,115h-7.84v-4h20.49v4H553.8v23.09H549Z" transform="translate(0 -19.7)" style="fill:url(#linear-gradient-6)"/><path d="M566.89,110.92h4.81v27.14h-4.81Z" transform="translate(0 -19.7)" style="fill:url(#linear-gradient-6)"/><path d="M577.89,124.38c0-8.78,4.89-14,12-14s12,5.2,12,14-4.9,14.18-12,14.18S577.89,133.16,577.89,124.38Zm19,0c0-6.09-2.76-9.78-7-9.78s-7,3.69-7,9.78,2.76,10,7,10S596.88,130.47,596.88,124.38Z" transform="translate(0 -19.7)" style="fill:url(#linear-gradient-6)"/><path d="M608,110.92H613l8.44,15.25,2.8,5.8h.17c-.23-2.81-.62-6.24-.62-9.27V110.92h4.59v27.14h-5L615,122.78,612.14,117H612c.24,2.87.62,6.14.62,9.16v11.89H608Z" transform="translate(0 -19.7)" style="fill:url(#linear-gradient-6)"/><path d="M634.08,134.58l2.8-3.3a10.65,10.65,0,0,0,7.07,3.09c3.06,0,4.74-1.38,4.74-3.5s-1.76-2.94-4.22-4l-3.71-1.61c-2.68-1.11-5.49-3.23-5.49-7.2,0-4.32,3.82-7.65,9.12-7.65a11.87,11.87,0,0,1,8.36,3.46l-2.47,3.06a8.75,8.75,0,0,0-5.89-2.34c-2.58,0-4.25,1.21-4.25,3.19s2.06,2.92,4.31,3.84l3.66,1.54c3.23,1.34,5.49,3.39,5.49,7.32,0,4.4-3.65,8.07-9.75,8.07A14,14,0,0,1,634.08,134.58Z" transform="translate(0 -19.7)" style="fill:url(#linear-gradient-6)"/><path d="M160.32,19.7h19.52c22.42,0,35.67,12.08,35.67,36.3s-13.25,36.88-35,36.88H160.32ZM179,82.36c14.72,0,23.18-8.37,23.18-26.36S193.71,30.22,179,30.22H173.3V82.36Z" transform="translate(0 -19.7)" style="fill:#7a7a7a"/><path d="M232.18,19.7h44V30.62H245.16V49.37h26.32V60.29H245.16V82h32.18V92.88H232.18Z" transform="translate(0 -19.7)" style="fill:#7a7a7a"/><path d="M294.24,19.7h44V30.62H307.22V49.37h26.32V60.29H307.22V82H339.4V92.88H294.24Z" transform="translate(0 -19.7)" style="fill:#7a7a7a"/><path d="M356.3,19.7h23.05c16.25,0,28.29,5.64,28.29,22.56C407.64,58.57,395.55,66,379.8,66H369.28v26.9h-13Zm22.42,35.89c10.92,0,16.12-4.34,16.12-13.33s-5.69-12.18-16.56-12.18h-9V55.59Z" transform="translate(0 -19.7)" style="fill:#7a7a7a"/><path d="M440.27,19.7H453.6l6.36,37c1.19,7.78,2.44,15.57,3.63,23.36H464c1.52-7.79,3.14-15.64,4.75-23.36l9-37h11.28l9,37c1.61,7.58,3.22,15.51,4.83,23.36h.45c1.19-7.85,2.35-15.71,3.54-23.36l6.35-37h12.44l-14,73.18H495.54l-9.08-38.54q-1.81-8.52-3.23-16.83h-.44q-1.52,8.33-3.32,16.83l-8.86,38.54h-15.8Z" transform="translate(0 -19.7)" style="fill:#7a7a7a"/><path d="M539,19.7h44V30.62H552V49.37h26.32V60.29H552V82h32.18V92.88H539Z" transform="translate(0 -19.7)" style="fill:#7a7a7a"/><path d="M601,19.7h23.41c15,0,26.09,4.61,26.09,18,0,6.9-3.76,13.61-10.16,15.85V54c8.1,1.83,14.06,7.47,14.06,17.36,0,14.64-12,21.49-28.11,21.49H601Zm22.24,30.21c10.21,0,14.55-4,14.55-10.34,0-7.07-4.79-9.76-14.28-9.76H614v20.1ZM625,82.76c10.74,0,16.73-3.85,16.73-12.08,0-7.7-5.81-11.06-16.73-11.06H614V82.76Z" transform="translate(0 -19.7)" style="fill:#7a7a7a"/></g></g></g></svg>