<?xml version="1.0" encoding="utf-8"?>
<!-- Generator: Adobe Illustrator 22.0.1, SVG Export Plug-In . SVG Version: 6.00 Build 0)  -->
<svg version="1.1" id="Layer_1" xmlns="http://www.w3.org/2000/svg" xmlns:xlink="http://www.w3.org/1999/xlink" x="0px" y="0px"
	 viewBox="0 0 822.2 63.2" style="enable-background:new 0 0 822.2 63.2;" xml:space="preserve">
<style type="text/css">
	.st0{fill:#1C2C59;}
	.st1{fill:#B1B1B1;}
</style>
<path class="st0" d="M132.1,10.5h13.8c8,0,12.8,3.6,12.8,10.2v0.2c0,6.3-4.9,10.3-12.7,10.3h-8.9l22,31.4h12.8L155,39
	c8.7-2.5,14.7-8.6,14.7-18.7v-0.2c0-5.4-1.9-10-5.1-13.3c-4-3.9-10.1-6.2-17.8-6.2h-25.6v62h10.9V10.5z"/>
<path class="st1" d="M502.8,7.4h13c9.9,0,15.7,4.6,15.7,12.2c0,8-6.6,12.7-15.8,12.7h-6.1l21.7,30.1h8.4l-17.9-25.1
	c9.7-1.8,16.7-7.7,16.7-18c0-11.1-8.7-18.4-22.2-18.4h-20.4v61.5h6.9V7.4z"/>
<path class="st0" d="M230.6,7c-5.3-4.5-11.7-6.9-18.6-6.9c-16.5,0-29.8,14.1-29.8,31.5c0,17.4,13.4,31.5,29.8,31.5
	c8,0,15.5-3,21.1-8.6c5.6-5.6,8.7-13.3,8.7-21.6c0-0.1,0-0.1,0-0.2c0,0,0,0,0,0l0-6.1h-25.3l-3.8,10.1h17.7
	c-2.5,9.9-8.5,14.7-18.4,14.7c-10.5,0-19.1-8.9-19.1-19.8c0-10.9,8.6-19.8,19.1-19.8c4.5,0,9,1.7,12.4,4.8L230.6,7z"/>
<polygon class="st0" points="0,11.2 19,11.2 19,62.6 29.9,62.6 29.9,11.2 48.8,11.2 52.7,0.6 0,0.6 "/>
<polygon class="st0" points="294.7,52.1 264.9,52.1 264.9,36.1 289.4,36.1 289.4,25.6 264.9,25.6 264.9,11.2 294.7,11.2 294.7,0.6 
	254,0.6 254,62.6 294.7,62.6 "/>
<polygon class="st0" points="307.8,11.2 326.7,11.2 326.7,62.6 337.7,62.6 337.7,11.2 356.5,11.2 360.5,0.6 307.8,0.6 "/>
<polygon class="st0" points="74.4,0.6 49.6,62.6 61.7,62.8 80.1,14.5 89.3,38.9 78.9,38.9 74.9,49.4 93.3,49.4 98.4,62.6 
	110.3,62.6 85.6,0.6 "/>
<g>
	<polygon class="st1" points="458.4,0.4 451.9,0.4 426.9,62.4 435,62.4 455.3,11.6 467.4,42.3 451.1,42.3 448.6,48.6 469.5,48.5 
		475.4,62.4 483.4,62.4 	"/>
	<g>
		<path class="st1" d="M574.3,62.4h-7V7.3h-17.6V0.9h46.2l-2.9,6.4h-18.6V62.4z"/>
	</g>
	<g>
		<path class="st1" d="M648.4,0.9h6.8v61.5h-6.5l-34.2-49.5v49.5h-6.8V0.9h6.5l34.2,49.3V0.9z"/>
	</g>
	<g>
		<path class="st1" d="M710.3,7.2h-31.5v21h27.5v6.3h-27.5V56h31.9v6.3h-38.8V0.9h38.4V7.2z"/>
	</g>
	<path class="st1" d="M804,28.3c-12.3-2.9-15.1-6.1-15.1-12c0-5.6,4.6-10,11.9-10c4.9,0,9.4,1.5,13.8,4.8c1.2-1.7,2.5-3.5,3.8-5.2
		C813.4,2,808.1,0,800.9,0c-10.6,0-18.3,7-18.3,16.9c0,10.2,5.9,14.8,18.7,17.8c11.7,2.7,14.5,6,14.5,11.8c0,6.2-4.9,10.5-12.4,10.5
		c-7.7,0-13.3-2.9-19.1-8.7l-3.9,5.1c6.7,6.6,13.9,9.8,22.8,9.8c11.1,0,19-6.9,19-17.5C822.2,36.3,816.5,31.3,804,28.3z"/>
</g>
<path class="st1" d="M733.1,7.4h13c9.9,0,15.7,4.6,15.7,12.2c0,8-6.6,12.7-15.8,12.7h-6.1l21.7,30.1h8.4l-17.9-25.1
	c9.7-1.8,16.7-7.7,16.7-18c0-11.1-8.7-18.4-22.2-18.4h-20.4v61.5h6.9V7.4z"/>
<path class="st1" d="M402.6,1h-19.1v61.6h6.9V7.4h11.6c9.9,0,16.5,4.6,16.5,13.5c0,8.2-6.7,13.6-16.9,13.6h-0.3l-2.8,6.3h2.8
	c13.1,0,24.2-6.9,24.2-20.2C425.6,8.4,416.5,1,402.6,1z"/>
</svg>
